<svg width="15" height="9" viewBox="0 0 15 9" fill="none" xmlns="http://www.w3.org/2000/svg">
<path d="M7.5 8.28125C7.79688 8.28125 8.04688 8.16406 8.27344 7.9375L13.8438 2.23438C14.0234 2.04688 14.1172 1.82812 14.1172 1.5625C14.1172 1.01562 13.6875 0.585938 13.1562 0.585938C12.8984 0.585938 12.6484 0.695312 12.4531 0.890625L7.50781 5.97656L2.54688 0.890625C2.35938 0.703125 2.11719 0.585938 1.84375 0.585938C1.3125 0.585938 0.882812 1.01562 0.882812 1.5625C0.882812 1.82031 0.984375 2.04688 1.16406 2.23438L6.73438 7.9375C6.96875 8.17188 7.21094 8.28125 7.5 8.28125Z" fill="black"/>
</svg>
