<svg width="22" height="22" viewBox="0 0 22 22" fill="none" xmlns="http://www.w3.org/2000/svg">
<path fill-rule="evenodd" clip-rule="evenodd" d="M10.6371 21.6373C16.5119 21.6373 21.2742 16.8749 21.2742 11H18.9104C18.9104 15.5693 15.2063 19.2735 10.6371 19.2735C6.06789 19.2735 2.3638 15.5693 2.3638 11C2.3638 6.43068 6.06789 2.72651 10.6371 2.72651C11.9511 2.72651 13.1937 3.03288 14.2971 3.57807L15.8736 1.73877C14.3277 0.862766 12.5408 0.362656 10.6371 0.362656C4.7624 0.362656 0 5.12516 0 11C0 16.8749 4.7624 21.6373 10.6371 21.6373ZM18.6069 7.06181C19.0436 6.57662 19.0043 5.8293 18.5191 5.39263C18.0339 4.95596 17.2866 4.9953 16.8499 5.48049L10.2401 12.8249L7.92976 10.4996C7.4697 10.0365 6.72137 10.0341 6.25831 10.4942C5.79525 10.9542 5.79283 11.7026 6.25288 12.1656L9.44407 15.3777C9.67307 15.6081 9.98685 15.7342 10.3117 15.7262C10.6365 15.7182 10.9437 15.5768 11.161 15.3353L18.6069 7.06181Z" fill="#84AE52"/>
</svg>
